<?xml version="1.0" encoding="UTF-8"?>
<svg width="132px" height="22px" viewBox="0 0 132 22" version="1.1" xmlns="http://www.w3.org/2000/svg" xmlns:xlink="http://www.w3.org/1999/xlink">
    <!-- Generator: Sketch 57.1 (83088) - https://sketch.com -->
    <title>Subtract (1)</title>
    <desc>Created with Sketch.</desc>
    <g id="页面-1" stroke="none" stroke-width="1" fill="none" fill-rule="evenodd">
        <g id="Subtract-(1)" fill="#FF8049">
            <g stroke-width="1" fill-rule="evenodd">
                <polygon id="路径" fill-rule="nonzero" points="9.33331304 9.39132174 9.33331304 6.26086087 6.2222087 6.26086087 6.2222087 9.39132174"></polygon>
                <polygon id="路径" fill-rule="nonzero" points="12.4444174 9.39132174 12.4444174 12.5217217 9.33331304 12.5217217 9.33331304 9.39132174"></polygon>
                <polygon id="路径" fill-rule="nonzero" points="12.4444174 9.39132174 12.4444174 6.26086087 15.5555826 6.26086087 15.5555826 9.39132174"></polygon>
                <polygon id="路径" fill-rule="nonzero" points="18.666687 6.26086087 21.7777913 6.26086087 21.7777913 9.39132174 18.666687 9.39132174"></polygon>
                <path d="M9.33331304,0 L6.2222087,0 L6.2222087,3.13043652 L3.11111043,3.13043652 L3.11111043,6.26086087 L0,6.26086087 L0,9.39132174 L3.11111043,9.39132174 L3.11111043,12.5217217 L6.2222087,12.5217217 L6.2222087,15.6521826 L9.33331304,15.6521826 L9.33331304,18.7825826 L12.4444174,18.7825826 L12.4444174,21.9130435 L15.5555826,21.9130435 L15.5555826,18.7825826 L18.666687,18.7825826 L18.666687,15.6521826 L21.7777913,15.6521826 L21.7777913,12.5217217 L24.8888957,12.5217217 L24.8888957,9.39132174 L28,9.39132174 L28,6.26086087 L24.8888957,6.26086087 L24.8888957,3.13043652 L21.7777913,3.13043652 L21.7777913,0 L18.666687,0 L18.666687,3.13043652 L15.5555826,3.13043652 L15.5555826,0 L12.4444174,0 L12.4444174,3.13043652 L9.33331304,3.13043652 L9.33331304,0 Z M9.33331304,6.26086087 L9.33331304,3.13043652 L6.2222087,3.13043652 L6.2222087,6.26086087 L3.11111043,6.26086087 L3.11111043,9.39132174 L6.2222087,9.39132174 L6.2222087,12.5217217 L9.33331304,12.5217217 L9.33331304,15.6521826 L12.4444174,15.6521826 L12.4444174,18.7825826 L15.5555826,18.7825826 L15.5555826,15.6521826 L12.564087,15.6521826 L12.564087,12.5217217 L15.5555826,12.5217217 L15.5555826,9.39132174 L18.666687,9.39132174 L18.666687,12.5217217 L15.6751913,12.5217217 L15.6751913,15.6521826 L18.666687,15.6521826 L18.666687,12.5217217 L21.7777913,12.5217217 L21.7777913,9.39132174 L24.8888957,9.39132174 L24.8888957,6.26086087 L21.7777913,6.26086087 L21.7777913,3.13043652 L18.666687,3.13043652 L18.666687,6.26086087 L15.5555826,6.26086087 L15.5555826,3.13043652 L12.4444174,3.13043652 L12.4444174,6.26086087 L9.33331304,6.26086087 Z" id="形状"></path>
            </g>
            <path d="M47.6425781,15.9335938 L44.6210938,15.9335938 L41.2675781,11.0195312 L39.2753906,11.0195312 L39.2753906,15.9335938 L36.71875,15.9335938 L36.71875,3.54882812 L46.9453125,3.54882812 L46.9453125,11.0195312 L44.3886719,11.0195312 L47.6425781,15.9335938 Z M39.2753906,8.62890625 L44.3886719,8.62890625 L44.3886719,5.90625 L39.2753906,5.90625 L39.2753906,8.62890625 Z M58.5,15.9335938 L49.9667969,15.9335938 L49.9667969,6.90234375 L52.5234375,6.90234375 L52.5234375,13.5761719 L55.9433594,13.5761719 L55.9433594,6.90234375 L58.5,6.90234375 L58.5,15.9335938 Z M69.8222656,15.9335938 L61.5214844,15.9335938 L61.5214844,5.00976562 L64.078125,5.00976562 L64.078125,6.90234375 L69.8222656,6.90234375 L69.8222656,15.9335938 Z M64.078125,9.29296875 L64.078125,13.5429688 L67.265625,13.5429688 L67.265625,9.29296875 L64.078125,9.29296875 Z M81.6757812,17.4775391 L72.84375,17.4775391 L72.84375,15.1035156 L79.1191406,15.1035156 L79.1191406,13.7089844 L72.84375,13.7089844 L72.84375,7.1015625 L75.4003906,7.1015625 L75.4003906,11.3515625 L79.1191406,11.3515625 L79.1191406,7.1015625 L81.6757812,7.1015625 L81.6757812,17.4775391 Z M94.890625,15.9335938 L84.7304688,15.9335938 L84.7304688,13.5761719 L92.3339844,13.5761719 L92.3339844,10.8203125 L84.7304688,10.8203125 L84.7304688,3.54882812 L94.8242188,3.54882812 L94.8242188,5.90625 L87.2871094,5.90625 L87.2871094,8.4296875 L94.890625,8.4296875 L94.890625,15.9335938 Z M108.703125,15.9335938 L97.8789062,15.9335938 L97.8789062,6.90234375 L100.335938,6.90234375 L100.335938,13.5429688 L102.0625,13.5429688 L102.0625,6.90234375 L104.519531,6.90234375 L104.519531,13.5429688 L106.246094,13.5429688 L106.246094,6.90234375 L108.703125,6.90234375 L108.703125,15.9335938 Z M111.425781,15.9335938 L111.425781,10.2226562 L117.302734,10.2226562 L117.302734,9.29296875 L112.587891,9.29296875 L112.587891,6.90234375 L119.859375,6.90234375 L119.859375,15.9335938 L111.425781,15.9335938 Z M113.949219,12.6132812 L113.949219,13.5761719 L117.302734,13.5761719 L117.302734,12.6132812 L113.949219,12.6132812 Z M131.314453,15.9335938 L125.105469,15.9335938 L125.105469,17.6435547 L122.548828,17.6435547 L122.548828,6.90234375 L131.314453,6.90234375 L131.314453,15.9335938 Z M125.105469,13.5429688 L128.791016,13.5429688 L128.791016,9.29296875 L125.105469,9.29296875 L125.105469,13.5429688 Z" id="RubySwap" fill-rule="nonzero"></path>
        </g>
    </g>
</svg>